<svg width="21" height="21" viewBox="0 0 21 21" fill="none" xmlns="http://www.w3.org/2000/svg">
<path d="M10.9785 18.0571C6.56852 18.0571 2.97852 14.4671 2.97852 10.0571C2.97852 5.64713 6.56852 2.05713 10.9785 2.05713C15.3885 2.05713 18.9785 5.64713 18.9785 10.0571C18.9785 14.4671 15.3885 18.0571 10.9785 18.0571ZM10.9785 0.0571289C9.6653 0.0571289 8.36494 0.315787 7.15168 0.818334C5.93843 1.32088 4.83603 2.05748 3.90745 2.98606C2.03208 4.86142 0.978516 7.40496 0.978516 10.0571C0.978516 12.7093 2.03208 15.2528 3.90745 17.1282C4.83603 18.0568 5.93843 18.7934 7.15168 19.2959C8.36494 19.7985 9.6653 20.0571 10.9785 20.0571C13.6307 20.0571 16.1742 19.0036 18.0496 17.1282C19.9249 15.2528 20.9785 12.7093 20.9785 10.0571C20.9785 8.74391 20.7199 7.44355 20.2173 6.23029C19.7148 5.01704 18.9782 3.91465 18.0496 2.98606C17.121 2.05748 16.0186 1.32088 14.8054 0.818334C13.5921 0.315787 12.2917 0.0571289 10.9785 0.0571289M11.9785 5.05713H9.97852V9.05713H5.97852V11.0571H9.97852V15.0571H11.9785V11.0571H15.9785V9.05713H11.9785V5.05713Z" fill="black"/>
</svg>
